<?xml version="1.0" encoding="UTF-8" standalone="no"?>
<!-- Generator: Adobe Illustrator 19.0.0, SVG Export Plug-In . SVG Version: 6.00 Build 0)  -->

<svg
   xmlns:dc="http://purl.org/dc/elements/1.1/"
   xmlns:cc="http://creativecommons.org/ns#"
   xmlns:rdf="http://www.w3.org/1999/02/22-rdf-syntax-ns#"
   xmlns:svg="http://www.w3.org/2000/svg"
   xmlns="http://www.w3.org/2000/svg"
   xmlns:sodipodi="http://sodipodi.sourceforge.net/DTD/sodipodi-0.dtd"
   xmlns:inkscape="http://www.inkscape.org/namespaces/inkscape"
   version="1.1"
   id="Capa_1"
   x="0px"
   y="0px"
   viewBox="0 0 22.000001 22.000001"
   xml:space="preserve"
   sodipodi:docname="phone.svg"
   width="22"
   height="22"
   inkscape:version="0.92.3 (2405546, 2018-03-11)"><metadata
   id="metadata67"><rdf:RDF><cc:Work
       rdf:about=""><dc:format>image/svg+xml</dc:format><dc:type
         rdf:resource="http://purl.org/dc/dcmitype/StillImage" /><dc:title></dc:title></cc:Work></rdf:RDF></metadata><defs
   id="defs65" /><sodipodi:namedview
   pagecolor="#ffffff"
   bordercolor="#666666"
   borderopacity="1"
   objecttolerance="10"
   gridtolerance="10"
   guidetolerance="10"
   inkscape:pageopacity="0"
   inkscape:pageshadow="2"
   inkscape:window-width="1600"
   inkscape:window-height="769"
   id="namedview63"
   showgrid="false"
   inkscape:zoom="3.687493"
   inkscape:cx="20.690744"
   inkscape:cy="12.732658"
   inkscape:window-x="0"
   inkscape:window-y="0"
   inkscape:window-maximized="0"
   inkscape:current-layer="Capa_1" />




<g
   id="g84"
   transform="matrix(0.04297196,0,0,0.04297196,0.00155505,-0.02005656)"
   style="fill:#00a800;fill-opacity:1"><g
     id="g6"
     style="fill:#00a800;fill-opacity:1">
	<g
   id="g4"
   style="fill:#00a800;fill-opacity:1">
		<path
   id="path2"
   d="m 473.964,379.743 -63.357,-65.555 c -0.059,-0.061 -0.119,-0.122 -0.179,-0.182 -17.586,-17.586 -46.048,-17.588 -63.635,0 l -28.926,28.925 c -13.321,13.322 -34.884,13.324 -48.207,0 -0.006,-0.006 -0.012,-0.012 -0.018,-0.018 L 169.049,244.699 c -13.322,-13.322 -13.324,-34.885 0,-48.208 l 28.925,-28.925 c 17.545,-17.544 17.545,-46.091 0,-63.635 L 134.339,40.296 c -17.545,-17.543 -46.091,-17.543 -63.635,0 -0.006,0.006 -21.216,21.217 -21.211,21.211 -0.005,0.006 -1.923,1.923 -1.928,1.929 -63.408,63.407 -63.431,166.04 0.01,229.481 l 173.877,171.498 c 63.267,63.267 165.727,63.503 229.248,0.223 0.348,-0.321 22.828,-21.027 23.163,-21.362 17.509,-17.511 17.543,-45.981 0.101,-63.533 z M 91.916,61.507 c 5.848,-5.848 15.363,-5.848 21.211,0 l 63.635,63.635 c 5.862,5.863 5.863,15.349 0,21.212 L 166.157,156.959 81.31,72.113 Z M 242.653,443.194 68.776,271.696 C 19.778,222.697 17.454,145.431 60.499,93.725 l 84.549,84.549 c -22.145,25.141 -21.224,63.623 2.808,87.655 l 100.611,98.232 c 24.047,24.028 62.406,25.017 87.62,2.773 l 84.542,84.542 c -52.216,43.375 -129.017,40.676 -177.976,-8.282 z m 210.176,-21.311 -10.08,9.289 -85.35,-85.35 10.605,-10.605 c 5.843,-5.842 15.274,-5.86 21.137,-0.075 0.117,0.121 63.391,65.591 63.51,65.709 5.789,5.79 5.848,15.171 0.178,21.032 z"
   inkscape:connector-curvature="0"
   style="fill:#00a800;fill-opacity:1" />
	</g>
</g><g
     id="g12"
     style="fill:#00a800;fill-opacity:1">
	<g
   id="g10"
   style="fill:#00a800;fill-opacity:1">
		<path
   id="path8"
   d="m 257.02,0.02 c -8.283,0 -14.999,6.716 -14.999,14.999 0,8.283 6.716,14.999 14.999,14.999 124.056,0 224.983,100.927 224.983,224.983 0,8.283 6.716,14.999 14.999,14.999 8.283,0 14.999,-6.715 14.999,-14.999 C 512.001,114.072 397.96,0.02 257.02,0.02 Z"
   inkscape:connector-curvature="0"
   style="fill:#00a800;fill-opacity:1" />
	</g>
</g><g
     id="g18"
     style="fill:#00a800;fill-opacity:1">
	<g
   id="g16"
   style="fill:#00a800;fill-opacity:1">
		<path
   id="path14"
   d="m 257.02,60.015 c -8.283,0 -14.999,6.716 -14.999,14.999 0,8.283 6.716,14.999 14.999,14.999 90.974,0 164.988,74.013 164.988,164.988 0,8.283 6.716,14.999 14.999,14.999 8.283,0 14.999,-6.715 14.999,-14.999 0,-107.515 -87.471,-194.986 -194.986,-194.986 z"
   inkscape:connector-curvature="0"
   style="fill:#00a800;fill-opacity:1" />
	</g>
</g><g
     id="g24"
     style="fill:#00a800;fill-opacity:1">
	<g
   id="g22"
   style="fill:#00a800;fill-opacity:1">
		<path
   id="path20"
   d="m 257.02,120.011 c -8.283,0 -14.999,6.716 -14.999,14.999 0,8.283 6.716,14.999 14.999,14.999 57.893,0 104.992,47.099 104.992,104.992 0,8.283 6.716,14.999 14.999,14.999 8.283,0 14.999,-6.715 14.999,-14.999 0,-74.434 -60.556,-134.99 -134.99,-134.99 z"
   inkscape:connector-curvature="0"
   style="fill:#00a800;fill-opacity:1" />
	</g>
</g><g
     id="g30"
     style="fill:#00a800;fill-opacity:1">
	<g
   id="g28"
   style="fill:#00a800;fill-opacity:1">
		<path
   id="path26"
   d="m 257.02,180.006 c -8.283,0 -14.999,6.716 -14.999,14.999 0,8.283 6.716,14.999 14.999,14.999 24.811,0 44.997,20.185 44.997,44.997 0,8.283 6.716,14.999 14.999,14.999 8.283,0 14.999,-6.715 14.999,-14.999 -10e-4,-41.352 -33.643,-74.995 -74.995,-74.995 z"
   inkscape:connector-curvature="0"
   style="fill:#00a800;fill-opacity:1" />
	</g>
</g></g>
<g
   id="g32"
   transform="translate(0,-490.00098)">
</g>
<g
   id="g34"
   transform="translate(0,-490.00098)">
</g>
<g
   id="g36"
   transform="translate(0,-490.00098)">
</g>
<g
   id="g38"
   transform="translate(0,-490.00098)">
</g>
<g
   id="g40"
   transform="translate(0,-490.00098)">
</g>
<g
   id="g42"
   transform="translate(0,-490.00098)">
</g>
<g
   id="g44"
   transform="translate(0,-490.00098)">
</g>
<g
   id="g46"
   transform="translate(0,-490.00098)">
</g>
<g
   id="g48"
   transform="translate(0,-490.00098)">
</g>
<g
   id="g50"
   transform="translate(0,-490.00098)">
</g>
<g
   id="g52"
   transform="translate(0,-490.00098)">
</g>
<g
   id="g54"
   transform="translate(0,-490.00098)">
</g>
<g
   id="g56"
   transform="translate(0,-490.00098)">
</g>
<g
   id="g58"
   transform="translate(0,-490.00098)">
</g>
<g
   id="g60"
   transform="translate(0,-490.00098)">
</g>
</svg>